# Made in Blockbench 4.9.4
mtllib 5tg6yyhujn.mtl

o the monitor
v 0.375 0.9558163017614945 -0.021856287127041824
v 0.375 1.0100813572824103 -0.32960870994335684
v 0.375 0.21721048700233844 -0.15209242037723955
v 0.375 0.2714755425232542 -0.45984484319355456
v -0.375 0.9558163017614945 -0.021856287127041824
v -0.375 1.0100813572824103 -0.32960870994335684
v -0.375 0.21721048700233844 -0.15209242037723955
v -0.375 0.2714755425232542 -0.45984484319355456
vt 2.8125 -1.25
vt 2.8125 -0.5
vt 2.4375 -0.5
vt 2.4375 -1.25
vt 0.375 -2.25
vt 0.375 -1.5
vt 0 -1.5
vt 0 -2.25
vt 2.625 1
vt 2.625 0.625
vt 3.375 0.625
vt 3.375 1
vt 2.625 0.25
vt 2.625 0.625
vt 3.375 0.625
vt 3.375 0.25
vt 2.625 0.25
vt 2.625 1
vt 1.875 1
vt 1.875 0.25
vt 1 0
vt 1 1
vt 0 1
vt 0 0
vn 1 0 0
vn -1 0 0
vn 0 0.984807753012208 0.17364817766693033
vn 0 -0.984807753012208 -0.17364817766693033
vn 0 -0.17364817766693033 0.984807753012208
vn 0 0.17364817766693033 -0.984807753012208
usemtl none
f 4/1/1 2/2/1 1/3/1 3/4/1
f 7/5/2 5/6/2 6/7/2 8/8/2
f 1/9/3 2/10/3 6/11/3 5/12/3
f 4/13/4 3/14/4 7/15/4 8/16/4
f 3/17/5 1/18/5 5/19/5 7/20/5
usemtl m_85f18140-6eba-3d6b-2aca-6ba13cd0e5b4
f 8/21/6 6/22/6 2/23/6 4/24/6